<svg xmlns="http://www.w3.org/2000/svg" width="40" height="38" viewBox="0 0 37.5 35.625"><g><g><g><path fill="#f3f3f0" fill-opacity="1" stroke="#c4c4c4" stroke-linejoin="bevel" stroke-miterlimit="4" stroke-width=".355" d="m 660.75803,449.15562 15.55544,5.66172 15.78565,-5.74552 -15.55544,-5.66172 z" transform="translate(-592.72335,-420.20756) matrix(0.5935466,0,0,0.59354645,250.33305,172.30823) translate(-67.857146,-23.035712)"/><path fill="#fff" fill-opacity="1" stroke="#c4c4c4" stroke-linejoin="bevel" stroke-miterlimit="4" stroke-width=".355" d="m 676.31347,454.81734 v 18.28268 l 15.78565,-5.74551 v -18.28269 z" transform="translate(-592.72335,-420.20756) matrix(0.5935466,0,0,0.59354645,250.33305,172.30823) translate(-67.857146,-23.035712)"/><path fill="#e7e6e2" fill-opacity="1" stroke="#c4c4c4" stroke-linejoin="bevel" stroke-miterlimit="4" stroke-width=".355" d="m 660.75803,449.15562 15.55544,5.66172 v 18.28268 l -15.55544,-5.66171 z" transform="translate(-592.72335,-420.20756) matrix(0.5935466,0,0,0.59354645,250.33305,172.30823) translate(-67.857146,-23.035712)"/></g><g transform="translate(-592.72335,-420.20756) matrix(0.5935466,0,0,0.59354645,250.33305,172.30823) translate(-83.545471,1.0197198)"><path fill="#f3f3f0" fill-opacity="1" stroke="#c4c4c4" stroke-linejoin="bevel" stroke-miterlimit="4" stroke-width=".355" d="m 660.75803,449.15562 15.55544,5.66172 15.78565,-5.74552 -15.55544,-5.66172 z"/><path fill="#fff" fill-opacity="1" stroke="#c4c4c4" stroke-linejoin="bevel" stroke-miterlimit="4" stroke-width=".355" d="m 676.31347,454.81734 v 18.28268 l 15.78565,-5.74551 v -18.28269 z"/><path id="path271" fill="#e7e6e2" fill-opacity="1" stroke="#c4c4c4" stroke-linejoin="bevel" stroke-miterlimit="4" stroke-width=".355" d="m 660.75803,449.15562 15.55544,5.66172 v 18.28268 l -15.55544,-5.66171 z"/></g><g><path fill="#f3f3f0" fill-opacity="1" stroke="#c4c4c4" stroke-linejoin="bevel" stroke-miterlimit="4" stroke-width=".355" d="m 660.75803,449.15562 15.55544,5.66172 15.78565,-5.74552 -15.55544,-5.66172 z" transform="translate(-592.72335,-420.20756) matrix(0.5935466,0,0,0.59354645,250.33305,172.30823) translate(-52.377998,1.0197198)"/><path fill="#fff" fill-opacity="1" stroke="#c4c4c4" stroke-linejoin="bevel" stroke-miterlimit="4" stroke-width=".355" d="m 676.31347,454.81734 v 18.28268 l 15.78565,-5.74551 v -18.28269 z" transform="translate(-592.72335,-420.20756) matrix(0.5935466,0,0,0.59354645,250.33305,172.30823) translate(-52.377998,1.0197198)"/><path fill="#e7e6e2" fill-opacity="1" stroke="#c4c4c4" stroke-linejoin="bevel" stroke-miterlimit="4" stroke-width=".355" d="m 660.75803,449.15562 15.55544,5.66172 v 18.28268 l -15.55544,-5.66171 z" transform="translate(-592.72335,-420.20756) matrix(0.5935466,0,0,0.59354645,250.33305,172.30823) translate(-52.377998,1.0197198)"/></g></g></g></svg>